<?xml version="1.0" encoding="UTF-8"?>
<svg width="210px" height="39px" viewBox="0 0 210 39" version="1.1" xmlns="http://www.w3.org/2000/svg" xmlns:xlink="http://www.w3.org/1999/xlink">
    <!-- Generator: Sketch 47.1 (45422) - http://www.bohemiancoding.com/sketch -->
    <title>userology_logo</title>
    <desc>Created with Sketch.</desc>
    <defs></defs>
    <g id="Homepage" stroke="none" stroke-width="1" fill="none" fill-rule="evenodd">
        <g id="Home-Copy" transform="translate(-63.000000, -60.000000)" fill="#FEFEFE">
            <g id="userology_logo" transform="translate(63.000000, 60.000000)">
                <path d="M15.3951916,7.08974258 L24.7251126,7.08974258 L24.7251126,0 L15.3951916,0 L15.3951916,7.08974258 Z M25.3789393,10.7122552 L34.7073658,10.7122552 L34.7073658,3.62026216 L25.3789393,3.62026216 L25.3789393,10.7122552 Z M5.29113971,10.7137555 L14.6210607,10.7137555 L14.6210607,3.62176248 L5.29113971,3.62176248 L5.29113971,10.7137555 Z M30.670079,18.5611576 L40,18.5611576 L40,11.471415 L30.670079,11.471415 L30.670079,18.5611576 Z M0,18.5611576 L9.32992098,18.5611576 L9.32992098,11.471415 L0,11.471415 L0,18.5611576 Z M30.670079,26.5300853 L40,26.5300853 L40,19.4380922 L30.670079,19.4380922 L30.670079,26.5300853 Z M0,26.5300853 L9.32992098,26.5300853 L9.32992098,19.4380922 L0,19.4380922 L0,26.5300853 Z M25.3789393,34.3797378 L34.7073658,34.3797378 L34.7073658,27.2884949 L25.3789393,27.2884949 L25.3789393,34.3797378 Z M5.29113971,34.3797378 L14.6210607,34.3797378 L14.6210607,27.2884949 L5.29113971,27.2884949 L5.29113971,34.3797378 Z M15.3951916,38 L24.7251126,38 L24.7251126,30.9125079 L15.3951916,30.9125079 L15.3951916,38 Z" id="Fill-1"></path>
                <path d="M15.3956512,7.08974258 L24.7261451,7.08974258 L24.7261451,0 L15.3956512,0 L15.3956512,7.08974258 Z M25.3784652,10.7122552 L34.7067175,10.7122552 L34.7067175,3.62026216 L25.3784652,3.62026216 L25.3784652,10.7122552 Z M5.29104087,10.7145057 L14.6215348,10.7145057 L14.6215348,3.62251263 L5.29104087,3.62251263 L5.29104087,10.7145057 Z M30.6695061,18.5611576 L40,18.5611576 L40,11.471415 L30.6695061,11.471415 L30.6695061,18.5611576 Z M0,18.5611576 L9.33049391,18.5611576 L9.33049391,11.471415 L0,11.471415 L0,18.5611576 Z M30.6695061,26.5308354 L40,26.5308354 L40,19.4388424 L30.6695061,19.4388424 L30.6695061,26.5308354 Z M0,26.5308354 L9.33049391,26.5308354 L9.33049391,19.4388424 L0,19.4388424 L0,26.5308354 Z M25.3784652,34.3797378 L34.7067175,34.3797378 L34.7067175,27.2877448 L25.3784652,27.2877448 L25.3784652,34.3797378 Z M5.29104087,34.3797378 L14.6215348,34.3797378 L14.6215348,27.2877448 L5.29104087,27.2877448 L5.29104087,34.3797378 Z M15.3956512,38 L24.7261451,38 L24.7261451,30.9125079 L15.3956512,30.9125079 L15.3956512,38 Z" id="Fill-2"></path>
                <g id="Group-21" transform="translate(51.000000, 7.000000)">
                    <path d="M20.4247817,12.5327628 C20.4247817,18.4847628 18.2435704,23.3643907 10.5488662,23.3643907 C2.95045775,23.3643907 0.672204225,18.6120186 0.672204225,12.5327628 L0.672204225,0.24104186 L6.32230282,0.24104186 L6.32230282,12.0289488 C6.32230282,16.5067163 7.38454225,18.2332279 10.5488662,18.2332279 C13.7594718,18.2332279 14.7739366,16.4680186 14.7739366,12.0289488 L14.7739366,0.24104186 L20.4247817,0.24104186 L20.4247817,12.5327628 Z" id="Fill-3"></path>
                    <path d="M24.4297901,17.4782512 C25.4666493,18.2164837 27.9262972,19.1861581 30.2926352,19.1861581 C31.7019873,19.1861581 32.5955225,18.8475535 32.5955225,17.8972279 C32.5955225,16.9044837 31.5877761,16.8114605 30.4546211,16.6120186 C26.0810014,15.9013209 23.3481423,15.3826233 23.3481423,11.5560186 C23.3481423,8.02113488 27.1536915,6.39211163 31.0786775,6.39211163 C33.3651423,6.39211163 35.7053535,6.94206512 37.3953817,7.99434419 L35.9173535,11.4801116 C34.6565507,10.9056 32.4992268,10.3921116 30.9495366,10.3921116 C29.7200859,10.3921116 28.7631,10.7322047 28.7631,11.5232744 C28.7631,12.2957395 29.4849451,12.4750884 30.3665366,12.6298791 C34.6207197,13.345786 37.9619592,13.6553674 37.9619592,18.0802977 C37.9619592,21.5757395 34.2041845,23.1712744 30.4770155,23.1712744 C27.6986211,23.1712744 24.6694099,22.4032744 22.9360859,20.9521116 L24.4297901,17.4782512 Z" id="Fill-5"></path>
                    <path d="M51.7244169,13.3510698 C51.7244169,13.0653023 51.6945577,12.7936744 51.6393183,12.5711628 C51.350431,11.096186 50.1620366,10.4584186 48.3271915,10.4584186 C46.1303042,10.4584186 44.9926704,11.7086512 44.7545437,13.2223256 L44.7388676,13.3510698 L51.7244169,13.3510698 Z M55.5396704,20.5875349 C53.9369803,22.2984186 51.4728535,23.3648372 48.2099944,23.3648372 C42.3643183,23.3648372 39.2694169,19.4630698 39.2694169,14.8669767 C39.2694169,10.2969302 42.3284873,6.36688372 48.1749099,6.36688372 C53.8556141,6.36688372 56.7310507,9.96204651 56.7310507,14.6712558 C56.7310507,15.2383256 56.6832761,15.8418605 56.5817549,16.4148837 L44.7000507,16.4148837 C45.168093,18.3653953 46.7028535,19.2844651 48.700431,19.2844651 C50.1896563,19.2844651 51.8505718,18.7575814 53.2173746,17.9106977 L55.5396704,20.5875349 Z" id="Fill-7"></path>
                    <path d="M68.8478211,10.715907 L67.8617225,10.715907 C66.9637085,10.715907 65.6864831,10.983814 64.4951028,12.6366512 L64.4951028,23.0068837 L59.0047507,23.0068837 L59.0047507,6.74567442 L63.834469,6.74567442 L64.1024549,8.89562791 C65.249793,7.47572093 66.6860183,6.3787907 68.694793,6.33637209 L68.8470746,6.33488372 L68.8478211,10.715907 Z" id="Fill-9"></path>
                    <path d="M79.0280761,10.7122605 C76.7587803,10.7122605 75.1911746,12.1768186 75.1911746,14.8767256 C75.1911746,17.5758884 76.7587803,19.0397023 79.0280761,19.0397023 C81.3563437,19.0397023 82.8657239,17.6361674 82.8657239,14.8767256 C82.8657239,12.0919814 81.3040901,10.7122605 79.0288225,10.7122605 L79.0280761,10.7122605 Z M88.3553296,14.8767256 C88.3553296,19.5353302 85.1850338,23.3641674 79.0288225,23.3641674 C72.9211324,23.3641674 69.7023155,19.454214 69.7023155,14.8767256 C69.7023155,10.2977488 72.9211324,6.37142326 79.0288225,6.37142326 C85.0282732,6.37142326 88.3553296,10.1444465 88.3553296,14.8767256 L88.3553296,14.8767256 Z" id="Fill-11"></path>
                    <path d="M96.1891028,16.3467163 C96.1891028,17.4250419 96.5205394,18.1372279 97.1229479,18.5733209 C97.7522296,19.0205767 98.6718915,19.169414 99.7990746,19.1463442 L99.7990746,23.2341581 C99.3892577,23.2609488 98.9883986,23.2743442 98.5964972,23.2743442 C96.5466662,23.2743442 94.750638,22.9044837 93.3913,22.0293209 C91.7109761,20.9502512 90.6994972,19.1188093 90.6994972,16.3467163 L90.6994972,0.0192744186 L96.1891028,0.0192744186 L96.1891028,16.3467163 Z" id="Fill-13"></path>
                    <path d="M106.243277,14.8765023 C106.243277,17.5756651 107.81163,19.0402233 110.080925,19.0402233 C112.408446,19.0402233 113.917827,17.6359442 113.917827,14.8765023 C113.917827,12.0925023 112.356193,10.7120372 110.080925,10.7120372 C107.81163,10.7120372 106.243277,12.1765953 106.243277,14.8765023 M119.407432,14.8765023 C119.407432,19.5358512 116.237137,23.3646884 110.080925,23.3646884 C103.973982,23.3646884 100.753672,19.4539907 100.753672,14.8765023 C100.753672,10.2982698 103.973982,6.3712 110.080925,6.3712 C116.081123,6.3712 119.407432,10.1449674 119.407432,14.8765023" id="Fill-15"></path>
                    <path d="M126.467406,12.1882791 C126.467406,13.8061395 127.271363,14.3181395 129.020363,14.3181395 C130.75742,14.3181395 131.573321,13.7748837 131.573321,12.1882791 C131.573321,10.5994419 130.712631,10.0584186 129.020363,10.0584186 C127.328096,10.0584186 126.467406,10.5994419 126.467406,12.1882791 L126.467406,12.1882791 Z M125.860518,25.9013953 C125.860518,27.072 126.986955,27.3324651 129.401814,27.3324651 C131.812941,27.3324651 132.940124,27.072 132.940124,25.9013953 C132.940124,24.6005581 132.028673,24.4673488 128.945715,24.4673488 C126.590575,24.4673488 125.860518,24.7374884 125.860518,25.9013953 L125.860518,25.9013953 Z M129.451828,20.4591628 C133.065532,20.4301395 138.481237,20.8089302 138.481237,25.9013953 C138.481237,30.4394419 133.684363,31.3659535 129.664575,31.3659535 C125.566406,31.3659535 120.423166,30.6009302 120.423166,25.9013953 C120.423166,23.7871628 121.354772,22.5302326 122.703659,21.7473488 C122.149025,21.3722791 121.778772,20.8662326 121.648138,20.3259535 C121.603349,20.1384186 121.580955,19.9449302 121.580955,19.7484651 C121.580955,18.763907 122.145293,17.6974884 123.264265,16.8208372 C122.12887,15.8251163 121.471969,14.3211163 121.471969,12.1882791 C121.471969,7.87646512 124.674363,5.89246512 129.020363,5.89246512 C130.644701,5.89246512 132.1078,6.16930233 133.298434,6.74604651 L138.450631,6.74604651 L138.450631,9.90139535 L136.039504,10.2146977 C136.371687,10.7430698 136.568758,11.4068837 136.568758,12.1882791 C136.568758,16.7828837 133.514166,18.484093 129.020363,18.484093 C128.336589,18.484093 127.694617,18.4230698 127.106392,18.3025116 C126.650293,18.635907 126.432321,19.0370233 126.432321,19.4143256 C126.432321,19.9248372 126.776448,20.3021395 127.46918,20.4591628 L129.451828,20.4591628 Z" id="Fill-17"></path>
                    <path d="M150.628165,25.9662884 C149.698052,28.2107535 148.378277,29.5115907 146.803954,30.2594977 C145.203503,30.9746605 143.339545,31.136893 141.354658,31.136893 L141.354658,27.0721488 C143.037221,27.0721488 144.137531,26.8771721 144.907151,26.4537302 C145.698418,25.9662884 146.12839,25.2838698 146.507601,24.3402419 L147.005503,23.0066605 L146.388911,23.0066605 L139.766897,6.74545116 L145.349813,6.74545116 L149.088179,17.1030326 L152.855658,6.74545116 L158.434841,6.74545116 L150.628165,25.9662884 Z" id="Fill-19"></path>
                </g>
            </g>
        </g>
    </g>
</svg>